HIERARCHY
ROOT Hips
{
	OFFSET 0.00000 0.00000 0.00000
	CHANNELS 6 Xposition Yposition Zposition Zrotation Yrotation Xrotation 
	JOINT LHipJoint
	{
		OFFSET 0 0 0
		CHANNELS 3 Zrotation Yrotation Xrotation
		JOINT LeftHip
		{
			OFFSET 1.23340 -1.80723 0.69510
			CHANNELS 3 Zrotation Yrotation Xrotation
			JOINT LeftKnee
			{
				OFFSET 2.50056 -6.87023 0.00000
				CHANNELS 3 Zrotation Yrotation Xrotation
				JOINT LeftAnkle
				{
					OFFSET 2.85931 -7.85591 0.00000
					CHANNELS 3 Zrotation Yrotation Xrotation
					JOINT LeftToe
					{
						OFFSET 0.21001 -0.57700 2.07823
						CHANNELS 3 Zrotation Yrotation Xrotation
						End Site
						{
							OFFSET 0.00000 -0.00000 1.08338
						}
					}
				}
			}
		}
	}
	JOINT RHipJoint
	{
		OFFSET 0 0 0
		CHANNELS 3 Zrotation Yrotation Xrotation
		JOINT RightHip
		{
			OFFSET -1.40842 -1.80723 0.69510
			CHANNELS 3 Zrotation Yrotation Xrotation
			JOINT RightKnee
			{
				OFFSET -2.54876 -7.00266 0.00000
				CHANNELS 3 Zrotation Yrotation Xrotation
				JOINT RightAnkle
				{
					OFFSET -2.74835 -7.55104 0.00000
					CHANNELS 3 Zrotation Yrotation Xrotation
					JOINT RightToe
					{
						OFFSET -0.22633 -0.62184 2.00890
						CHANNELS 3 Zrotation Yrotation Xrotation
						End Site
						{
							OFFSET -0.00000 -0.00000 1.05493
						}
					}
				}
			}
		}
	}
	JOINT lowerback
	{
		OFFSET 0 0 0
		CHANNELS 3 Zrotation Yrotation Xrotation
		JOINT Chest
		{
			OFFSET -0.02340 2.02740 -0.12728
			CHANNELS 3 Zrotation Yrotation Xrotation
			JOINT Chest2
			{
				OFFSET -0.00862 2.03614 -0.01188
				CHANNELS 3 Zrotation Yrotation Xrotation
				JOINT lowerneck
				{
					OFFSET 0 0 0
					CHANNELS 3 Zrotation Yrotation Xrotation
					JOINT Neck
					{
						OFFSET 0.03380 1.76650 0.27670
						CHANNELS 3 Zrotation Yrotation Xrotation
						JOINT Head
						{
							OFFSET -0.01114 1.80516 -0.21451
							CHANNELS 3 Zrotation Yrotation Xrotation
							End Site
							{
								OFFSET -0.00766 1.81942 -0.10287
							}
						}
					}
				}
				JOINT LeftCollar
				{
					OFFSET 0 0 0
					CHANNELS 3 Zrotation Yrotation Xrotation
					JOINT LeftShoulder
					{
						OFFSET 3.22358 1.39475 0.18630
CHANNELS 3 Zrotation Xrotation Yrotation
						JOINT LeftElbow
						{
OFFSET 0 -5.450770 0.000000
CHANNELS 3 Zrotation Xrotation Yrotation
							JOINT LeftWrist
							{
OFFSET 0 -3.054880 0.000000
CHANNELS 3 Zrotation Xrotation Yrotation
								JOINT lhand
								{
									OFFSET 0 0 0
CHANNELS 3 Zrotation Xrotation Yrotation
									JOINT LFingers
									{
OFFSET 0 -0.638820 0.000000
CHANNELS 3 Zrotation Xrotation Yrotation
										End Site
										{
OFFSET 0 -0.515030 0.000000
										}
									}
								}
								JOINT LThumb
								{
OFFSET 0 0.000000 0.000000
CHANNELS 3 Zrotation Xrotation Yrotation
									End Site
									{
OFFSET 0 -0.522900 0.522900
									}
								}
							}
						}
					}
				}
				JOINT RightCollar
				{
					OFFSET 0 0 0
					CHANNELS 3 Zrotation Yrotation Xrotation
					JOINT RightShoulder
					{
						OFFSET -3.57143 1.14055 0.30691
CHANNELS 3 Zrotation Xrotation Yrotation
						JOINT RightElbow
						{
OFFSET 0 -4.887020 -0.000000
CHANNELS 3 Zrotation Xrotation Yrotation
							JOINT RightWrist
							{
OFFSET 0 -3.226030 0.000000
CHANNELS 3 Zrotation Xrotation Yrotation
								JOINT rhand
								{
									OFFSET 0 0 0
CHANNELS 3 Zrotation Xrotation Yrotation
									JOINT RFingers
									{
OFFSET 0 -0.716290 0.000000
CHANNELS 3 Zrotation Xrotation Yrotation
										End Site
										{
OFFSET 0 -0.577490 0.000000
										}
									}
								}
								JOINT RThumb
								{
OFFSET 0 0.000000 0.000000
CHANNELS 3 Zrotation Xrotation Yrotation
									End Site
									{
OFFSET 0 -0.586310 0.586310
									}
								}
							}
						}
					}
				}
			}
		}
	}
}
MOTION
Frames: 6
Frame Time: 0.008333333333333333
1.742300 18.530100 0.634200 143.065000 86.196000 153.944000 0.000000 0.000000 0.000000 -17.706000 0.904300 -13.549600 0.522100 4.630700 12.858100 0.060100 -10.592900 -8.339400 2.073100 -9.016800 -25.847800 0.000000 0.000000 0.000000 0.000000 0.000000 0.000000 0.000000 0.000000 0.000000 -0.000000 -0.000000 0.000000 -0.000000 -0.000000 0.000000 -1.788500 -1.291900 -8.629000 -0.685000 -1.439900 -3.911300 0.167200 -0.651400 0.816200 1.284300 -0.156700 -17.710100 0.115400 -0.371400 24.062700 -0.207900 0.068800 10.665900 0.000000 0.000000 0.000000 9.592600 2.095200 -49.973200 30.045500 -40.932400 11.439400 11.530900 -12.069200 -25.699300 0.000000 0.000000 0.000000 -7.125000 0.000000 0.000000 -19.421000 55.066700 4.938200 0.000000 0.000000 0.000000 -1.015900 -0.309700 46.150300 -16.971700 -26.820400 -4.074600 -17.869800 0.093600 -8.370400 0.000000 0.000000 0.000000 7.125000 0.000000 -0.000000 6.502100 21.215100 3.732200
1.798903 18.523599 0.615699 133.346130 86.662051 144.109486 0.000000 0.000000 0.000000 -17.998625 1.182080 -13.004366 0.499522 4.531078 12.575724 0.105669 -10.055357 -8.684717 2.051315 -8.972174 -25.708265 0.000000 0.000000 0.000000 0.000000 0.000000 0.000000 0.000000 0.000000 0.000000 0.000000 0.000000 0.000000 0.000000 0.000000 0.000000 -1.994322 -1.425246 -8.881140 -0.552713 -1.594717 -3.949540 0.399103 -0.725257 0.926749 1.405600 0.180552 -17.587619 -0.302556 0.168293 23.652982 -0.302367 0.266206 10.495755 0.000000 0.000000 0.000000 9.401124 2.469845 -51.682905 26.682576 -37.874694 9.303625 11.550505 -13.473607 -28.395439 0.000000 0.000000 0.000000 -7.125000 0.000000 0.000000 -21.115871 57.596444 6.709050 0.000000 0.000000 0.000000 -0.782211 0.347240 43.798175 -15.586777 -24.957108 -3.469738 -17.698296 2.061816 -8.465900 0.000000 0.000000 0.000000 7.125000 0.000000 0.000000 6.624596 21.124788 3.817049
1.837905 18.521824 0.592687 131.716072 86.825957 142.563110 0.000000 0.000000 0.000000 -18.001450 1.140282 -13.149183 0.533596 4.680820 13.000400 0.140845 -9.986781 -9.148368 2.021550 -8.910910 -25.516907 0.000000 0.000000 0.000000 0.000000 0.000000 0.000000 0.000000 0.000000 0.000000 0.000000 0.000000 0.000000 0.000000 0.000000 0.000000 -1.852849 -1.530243 -9.062157 -0.413410 -1.739520 -4.081059 0.446821 -0.794640 0.893617 1.435015 0.318066 -17.737885 -0.358710 0.351851 23.426048 -0.302132 0.339717 10.443774 0.000000 0.000000 0.000000 8.392975 2.464980 -50.552209 20.109120 -30.772568 5.587580 9.402410 -9.694920 -25.682299 0.000000 0.000000 0.000000 -7.125000 0.000000 0.000000 -21.509635 54.645511 5.279781 0.000000 0.000000 0.000000 -0.688134 1.589814 41.137238 -14.479658 -23.416209 -3.016166 -17.691536 4.086205 -8.989044 0.000000 0.000000 0.000000 7.125000 0.000000 0.000000 6.623803 20.581165 3.898360
1.871878 18.514398 0.571962 124.600386 87.104799 135.451741 0.000000 0.000000 0.000000 -18.132183 1.301754 -13.182984 0.557474 4.782696 13.289885 0.178964 -9.877109 -9.617982 2.044323 -8.957717 -25.663274 0.000000 0.000000 0.000000 0.000000 0.000000 0.000000 0.000000 0.000000 0.000000 0.000000 0.000000 0.000000 0.000000 0.000000 0.000000 -1.679994 -1.493460 -9.119998 -0.425565 -1.700629 -4.183170 0.341345 -0.774514 0.813651 1.565490 0.405026 -17.566493 -0.334196 0.413607 22.859113 -0.308009 0.373230 10.206752 0.000000 0.000000 0.000000 7.540724 3.571365 -48.435431 16.285448 -25.906025 3.769869 9.037734 -4.977059 -26.291550 0.000000 0.000000 0.000000 -7.125000 0.000000 0.000000 -22.241785 55.139711 5.746527 0.000000 0.000000 0.000000 -0.667209 2.569272 38.770119 -13.610400 -22.174993 -2.679337 -18.972146 5.958626 -10.060348 0.000000 0.000000 0.000000 7.125000 0.000000 0.000000 5.707621 19.382210 3.507290
1.919769 18.511374 0.540232 113.050940 87.164895 123.910175 0.000000 0.000000 0.000000 -18.588903 1.445359 -12.967291 0.557179 4.781471 13.286324 0.209965 -9.580822 -9.897450 2.127042 -9.125784 -26.189601 0.000000 0.000000 0.000000 0.000000 0.000000 0.000000 0.000000 0.000000 0.000000 0.000000 0.000000 0.000000 0.000000 0.000000 0.000000 -1.718811 -1.439166 -9.456816 -0.410158 -1.618982 -4.058967 0.377483 -0.736963 1.126940 1.460732 0.427673 -17.701157 -0.310448 0.444731 22.340370 -0.279010 0.370249 10.045720 0.000000 0.000000 0.000000 7.074743 5.331957 -47.384643 16.024942 -25.554333 3.656760 10.622955 -4.135111 -25.994910 0.000000 0.000000 0.000000 -7.125000 0.000000 0.000000 -20.496377 55.169550 5.280772 0.000000 0.000000 0.000000 -1.373649 3.105082 38.935395 -13.699769 -22.303856 -2.713084 -18.631531 5.832404 -9.496282 0.000000 0.000000 0.000000 7.125000 0.000000 0.000000 5.948398 19.995307 3.574878
1.948459 18.507468 0.523780 116.262980 87.121908 126.976558 0.000000 0.000000 0.000000 -18.603319 1.560562 -12.775579 0.559980 4.793107 13.319408 0.202629 -9.828638 -9.912675 2.118205 -9.108097 -26.134069 0.000000 0.000000 0.000000 0.000000 0.000000 0.000000 0.000000 0.000000 0.000000 0.000000 0.000000 0.000000 0.000000 0.000000 0.000000 -1.688924 -1.387218 -9.365393 -0.355625 -1.558698 -3.994809 0.424393 -0.708788 1.142762 1.480935 0.235158 -17.825880 -0.199555 0.130030 22.167894 -0.286861 0.235994 10.004448 0.000000 0.000000 0.000000 7.459629 6.291102 -49.710098 17.079645 -26.962570 4.123427 10.855868 -5.650399 -26.014858 0.000000 0.000000 0.000000 -7.125000 0.000000 0.000000 -20.277668 55.233163 5.252877 0.000000 0.000000 0.000000 -1.733884 3.231568 38.988776 -13.798402 -22.445788 -2.750676 -18.635196 5.744468 -9.373058 0.000000 0.000000 0.000000 7.125000 0.000000 0.000000 5.945696 20.123983 3.556047
